<mxfile host="app.diagrams.net" modified="2022-05-23T23:30:39.120Z" agent="5.0 (Windows)" etag="IbK0aX3xkWJTnL6v2UeH" version="18.1.1" type="github">
  <diagram id="C5RBs43oDa-KdzZeNtuy" name="Page-1">
    <mxGraphModel dx="1422" dy="752" grid="1" gridSize="10" guides="1" tooltips="1" connect="1" arrows="1" fold="1" page="1" pageScale="1" pageWidth="827" pageHeight="1169" math="0" shadow="0">
      <root>
        <mxCell id="WIyWlLk6GJQsqaUBKTNV-0" />
        <mxCell id="WIyWlLk6GJQsqaUBKTNV-1" parent="WIyWlLk6GJQsqaUBKTNV-0" />
        <mxCell id="bKYFdrfAekS4fBA-Ki-D-25" value="" style="rounded=0;html=1;jettySize=auto;orthogonalLoop=1;fontSize=11;endArrow=block;endFill=0;endSize=8;strokeWidth=1;shadow=0;labelBackgroundColor=none;edgeStyle=orthogonalEdgeStyle;" edge="1" parent="WIyWlLk6GJQsqaUBKTNV-1" source="bKYFdrfAekS4fBA-Ki-D-26" target="bKYFdrfAekS4fBA-Ki-D-29">
          <mxGeometry relative="1" as="geometry" />
        </mxCell>
        <mxCell id="bKYFdrfAekS4fBA-Ki-D-26" value="Turn on the Red light" style="rounded=1;whiteSpace=wrap;html=1;fontSize=12;glass=0;strokeWidth=1;shadow=0;" vertex="1" parent="WIyWlLk6GJQsqaUBKTNV-1">
          <mxGeometry x="40" y="50" width="140" height="40" as="geometry" />
        </mxCell>
        <mxCell id="bKYFdrfAekS4fBA-Ki-D-27" value="Yes" style="rounded=0;html=1;jettySize=auto;orthogonalLoop=1;fontSize=11;endArrow=block;endFill=0;endSize=8;strokeWidth=1;shadow=0;labelBackgroundColor=none;edgeStyle=orthogonalEdgeStyle;" edge="1" parent="WIyWlLk6GJQsqaUBKTNV-1" source="bKYFdrfAekS4fBA-Ki-D-29" target="bKYFdrfAekS4fBA-Ki-D-32">
          <mxGeometry y="20" relative="1" as="geometry">
            <mxPoint as="offset" />
          </mxGeometry>
        </mxCell>
        <mxCell id="bKYFdrfAekS4fBA-Ki-D-28" value="No" style="edgeStyle=orthogonalEdgeStyle;rounded=0;html=1;jettySize=auto;orthogonalLoop=1;fontSize=11;endArrow=block;endFill=0;endSize=8;strokeWidth=1;shadow=0;labelBackgroundColor=none;" edge="1" parent="WIyWlLk6GJQsqaUBKTNV-1" source="bKYFdrfAekS4fBA-Ki-D-29" target="bKYFdrfAekS4fBA-Ki-D-30">
          <mxGeometry y="10" relative="1" as="geometry">
            <mxPoint as="offset" />
          </mxGeometry>
        </mxCell>
        <mxCell id="bKYFdrfAekS4fBA-Ki-D-29" value="Has the red light turned off?" style="rhombus;whiteSpace=wrap;html=1;shadow=0;fontFamily=Helvetica;fontSize=12;align=center;strokeWidth=1;spacing=6;spacingTop=-4;" vertex="1" parent="WIyWlLk6GJQsqaUBKTNV-1">
          <mxGeometry x="45" y="100" width="130" height="140" as="geometry" />
        </mxCell>
        <mxCell id="bKYFdrfAekS4fBA-Ki-D-30" value="Wait until red light is off" style="rounded=1;whiteSpace=wrap;html=1;fontSize=12;glass=0;strokeWidth=1;shadow=0;" vertex="1" parent="WIyWlLk6GJQsqaUBKTNV-1">
          <mxGeometry x="240" y="145" width="134" height="50" as="geometry" />
        </mxCell>
        <mxCell id="bKYFdrfAekS4fBA-Ki-D-31" style="edgeStyle=orthogonalEdgeStyle;rounded=0;orthogonalLoop=1;jettySize=auto;html=1;entryX=0.5;entryY=0;entryDx=0;entryDy=0;" edge="1" parent="WIyWlLk6GJQsqaUBKTNV-1" source="bKYFdrfAekS4fBA-Ki-D-32" target="bKYFdrfAekS4fBA-Ki-D-35">
          <mxGeometry relative="1" as="geometry" />
        </mxCell>
        <mxCell id="bKYFdrfAekS4fBA-Ki-D-32" value="Turn on amber" style="rhombus;whiteSpace=wrap;html=1;shadow=0;fontFamily=Helvetica;fontSize=12;align=center;strokeWidth=1;spacing=6;spacingTop=-4;" vertex="1" parent="WIyWlLk6GJQsqaUBKTNV-1">
          <mxGeometry x="60" y="270" width="100" height="80" as="geometry" />
        </mxCell>
        <mxCell id="bKYFdrfAekS4fBA-Ki-D-33" value="&lt;div style=&quot;line-height: 1.2;&quot; align=&quot;center&quot;&gt;No&lt;/div&gt;" style="edgeStyle=orthogonalEdgeStyle;rounded=0;orthogonalLoop=1;jettySize=auto;html=1;align=center;" edge="1" parent="WIyWlLk6GJQsqaUBKTNV-1" source="bKYFdrfAekS4fBA-Ki-D-35" target="bKYFdrfAekS4fBA-Ki-D-36">
          <mxGeometry relative="1" as="geometry" />
        </mxCell>
        <mxCell id="bKYFdrfAekS4fBA-Ki-D-34" value="Yes" style="edgeStyle=orthogonalEdgeStyle;rounded=0;orthogonalLoop=1;jettySize=auto;html=1;" edge="1" parent="WIyWlLk6GJQsqaUBKTNV-1" source="bKYFdrfAekS4fBA-Ki-D-35" target="bKYFdrfAekS4fBA-Ki-D-38">
          <mxGeometry relative="1" as="geometry" />
        </mxCell>
        <mxCell id="bKYFdrfAekS4fBA-Ki-D-35" value="Is amber and red light off?" style="rounded=1;whiteSpace=wrap;html=1;fontSize=12;glass=0;strokeWidth=1;shadow=0;" vertex="1" parent="WIyWlLk6GJQsqaUBKTNV-1">
          <mxGeometry x="50" y="400" width="120" height="40" as="geometry" />
        </mxCell>
        <mxCell id="bKYFdrfAekS4fBA-Ki-D-36" value="Wait until red and amber lights are off" style="ellipse;whiteSpace=wrap;html=1;rounded=1;glass=0;strokeWidth=1;shadow=0;" vertex="1" parent="WIyWlLk6GJQsqaUBKTNV-1">
          <mxGeometry x="240" y="380" width="150" height="80" as="geometry" />
        </mxCell>
        <mxCell id="bKYFdrfAekS4fBA-Ki-D-37" value="" style="edgeStyle=orthogonalEdgeStyle;rounded=0;orthogonalLoop=1;jettySize=auto;html=1;" edge="1" parent="WIyWlLk6GJQsqaUBKTNV-1" source="bKYFdrfAekS4fBA-Ki-D-38" target="bKYFdrfAekS4fBA-Ki-D-41">
          <mxGeometry relative="1" as="geometry" />
        </mxCell>
        <mxCell id="bKYFdrfAekS4fBA-Ki-D-38" value="Turn off amber and red lights. Turn on green light" style="whiteSpace=wrap;html=1;rounded=1;glass=0;strokeWidth=1;shadow=0;" vertex="1" parent="WIyWlLk6GJQsqaUBKTNV-1">
          <mxGeometry x="50" y="480" width="120" height="60" as="geometry" />
        </mxCell>
        <mxCell id="bKYFdrfAekS4fBA-Ki-D-39" value="No" style="edgeStyle=orthogonalEdgeStyle;rounded=0;orthogonalLoop=1;jettySize=auto;html=1;" edge="1" parent="WIyWlLk6GJQsqaUBKTNV-1" source="bKYFdrfAekS4fBA-Ki-D-41" target="bKYFdrfAekS4fBA-Ki-D-42">
          <mxGeometry relative="1" as="geometry" />
        </mxCell>
        <mxCell id="bKYFdrfAekS4fBA-Ki-D-40" value="" style="edgeStyle=orthogonalEdgeStyle;rounded=0;orthogonalLoop=1;jettySize=auto;html=1;" edge="1" parent="WIyWlLk6GJQsqaUBKTNV-1" source="bKYFdrfAekS4fBA-Ki-D-41" target="bKYFdrfAekS4fBA-Ki-D-44">
          <mxGeometry relative="1" as="geometry" />
        </mxCell>
        <mxCell id="bKYFdrfAekS4fBA-Ki-D-41" value="Is the green light off?" style="whiteSpace=wrap;html=1;rounded=1;glass=0;strokeWidth=1;shadow=0;" vertex="1" parent="WIyWlLk6GJQsqaUBKTNV-1">
          <mxGeometry x="50" y="585" width="120" height="60" as="geometry" />
        </mxCell>
        <mxCell id="bKYFdrfAekS4fBA-Ki-D-42" value="Wait until it turns off" style="whiteSpace=wrap;html=1;rounded=1;glass=0;strokeWidth=1;shadow=0;" vertex="1" parent="WIyWlLk6GJQsqaUBKTNV-1">
          <mxGeometry x="240" y="585" width="120" height="60" as="geometry" />
        </mxCell>
        <mxCell id="bKYFdrfAekS4fBA-Ki-D-43" value="" style="edgeStyle=orthogonalEdgeStyle;rounded=0;orthogonalLoop=1;jettySize=auto;html=1;" edge="1" parent="WIyWlLk6GJQsqaUBKTNV-1" source="bKYFdrfAekS4fBA-Ki-D-44" target="bKYFdrfAekS4fBA-Ki-D-47">
          <mxGeometry relative="1" as="geometry" />
        </mxCell>
        <mxCell id="bKYFdrfAekS4fBA-Ki-D-44" value="&lt;div&gt;Turn off green light. &lt;br&gt;&lt;/div&gt;&lt;div&gt;Turn on amber&lt;br&gt;&lt;/div&gt;" style="whiteSpace=wrap;html=1;rounded=1;glass=0;strokeWidth=1;shadow=0;" vertex="1" parent="WIyWlLk6GJQsqaUBKTNV-1">
          <mxGeometry x="50" y="680" width="120" height="60" as="geometry" />
        </mxCell>
        <mxCell id="bKYFdrfAekS4fBA-Ki-D-45" value="No" style="edgeStyle=orthogonalEdgeStyle;rounded=0;orthogonalLoop=1;jettySize=auto;html=1;" edge="1" parent="WIyWlLk6GJQsqaUBKTNV-1" source="bKYFdrfAekS4fBA-Ki-D-47" target="bKYFdrfAekS4fBA-Ki-D-48">
          <mxGeometry relative="1" as="geometry" />
        </mxCell>
        <mxCell id="bKYFdrfAekS4fBA-Ki-D-46" value="" style="edgeStyle=orthogonalEdgeStyle;rounded=0;orthogonalLoop=1;jettySize=auto;html=1;" edge="1" parent="WIyWlLk6GJQsqaUBKTNV-1" source="bKYFdrfAekS4fBA-Ki-D-47" target="bKYFdrfAekS4fBA-Ki-D-50">
          <mxGeometry relative="1" as="geometry" />
        </mxCell>
        <mxCell id="bKYFdrfAekS4fBA-Ki-D-47" value="Is the amber light off?" style="whiteSpace=wrap;html=1;rounded=1;glass=0;strokeWidth=1;shadow=0;" vertex="1" parent="WIyWlLk6GJQsqaUBKTNV-1">
          <mxGeometry x="50" y="770" width="120" height="60" as="geometry" />
        </mxCell>
        <mxCell id="bKYFdrfAekS4fBA-Ki-D-48" value="Wait until it goes off" style="whiteSpace=wrap;html=1;rounded=1;glass=0;strokeWidth=1;shadow=0;" vertex="1" parent="WIyWlLk6GJQsqaUBKTNV-1">
          <mxGeometry x="240" y="770" width="120" height="60" as="geometry" />
        </mxCell>
        <mxCell id="bKYFdrfAekS4fBA-Ki-D-49" style="edgeStyle=orthogonalEdgeStyle;rounded=0;orthogonalLoop=1;jettySize=auto;html=1;entryX=0;entryY=0.5;entryDx=0;entryDy=0;" edge="1" parent="WIyWlLk6GJQsqaUBKTNV-1" source="bKYFdrfAekS4fBA-Ki-D-50" target="bKYFdrfAekS4fBA-Ki-D-26">
          <mxGeometry relative="1" as="geometry">
            <Array as="points">
              <mxPoint x="10" y="950" />
              <mxPoint x="10" y="70" />
            </Array>
          </mxGeometry>
        </mxCell>
        <mxCell id="bKYFdrfAekS4fBA-Ki-D-50" value="&lt;div&gt;Turn off amber. &lt;br&gt;&lt;/div&gt;&lt;div&gt;Go back to the beginning of the sequence&lt;br&gt;&lt;/div&gt;" style="whiteSpace=wrap;html=1;rounded=1;glass=0;strokeWidth=1;shadow=0;" vertex="1" parent="WIyWlLk6GJQsqaUBKTNV-1">
          <mxGeometry x="50" y="900" width="120" height="60" as="geometry" />
        </mxCell>
        <mxCell id="bKYFdrfAekS4fBA-Ki-D-51" value="Traffic Light 1" style="text;html=1;resizable=0;autosize=1;align=center;verticalAlign=middle;points=[];fillColor=none;strokeColor=none;rounded=0;" vertex="1" parent="WIyWlLk6GJQsqaUBKTNV-1">
          <mxGeometry x="65" y="10" width="90" height="20" as="geometry" />
        </mxCell>
        <mxCell id="bKYFdrfAekS4fBA-Ki-D-52" value="Traffic Light 2" style="text;html=1;resizable=0;autosize=1;align=center;verticalAlign=middle;points=[];fillColor=none;strokeColor=none;rounded=0;" vertex="1" parent="WIyWlLk6GJQsqaUBKTNV-1">
          <mxGeometry x="620" y="10" width="90" height="20" as="geometry" />
        </mxCell>
        <mxCell id="bKYFdrfAekS4fBA-Ki-D-55" value="" style="edgeStyle=orthogonalEdgeStyle;rounded=0;orthogonalLoop=1;jettySize=auto;html=1;" edge="1" parent="WIyWlLk6GJQsqaUBKTNV-1" source="bKYFdrfAekS4fBA-Ki-D-53" target="bKYFdrfAekS4fBA-Ki-D-54">
          <mxGeometry relative="1" as="geometry" />
        </mxCell>
        <mxCell id="bKYFdrfAekS4fBA-Ki-D-53" value="Turn on the green light" style="whiteSpace=wrap;html=1;" vertex="1" parent="WIyWlLk6GJQsqaUBKTNV-1">
          <mxGeometry x="605" y="50" width="120" height="60" as="geometry" />
        </mxCell>
        <mxCell id="bKYFdrfAekS4fBA-Ki-D-57" value="No" style="edgeStyle=orthogonalEdgeStyle;rounded=0;orthogonalLoop=1;jettySize=auto;html=1;" edge="1" parent="WIyWlLk6GJQsqaUBKTNV-1" source="bKYFdrfAekS4fBA-Ki-D-54" target="bKYFdrfAekS4fBA-Ki-D-56">
          <mxGeometry relative="1" as="geometry" />
        </mxCell>
        <mxCell id="bKYFdrfAekS4fBA-Ki-D-59" value="" style="edgeStyle=orthogonalEdgeStyle;rounded=0;orthogonalLoop=1;jettySize=auto;html=1;" edge="1" parent="WIyWlLk6GJQsqaUBKTNV-1" source="bKYFdrfAekS4fBA-Ki-D-54" target="bKYFdrfAekS4fBA-Ki-D-58">
          <mxGeometry relative="1" as="geometry" />
        </mxCell>
        <mxCell id="bKYFdrfAekS4fBA-Ki-D-54" value="Has the red light of traffic light 1 turned off?" style="rhombus;whiteSpace=wrap;html=1;" vertex="1" parent="WIyWlLk6GJQsqaUBKTNV-1">
          <mxGeometry x="592.5" y="130" width="145" height="150" as="geometry" />
        </mxCell>
        <mxCell id="bKYFdrfAekS4fBA-Ki-D-56" value="Wait until it turns off" style="whiteSpace=wrap;html=1;" vertex="1" parent="WIyWlLk6GJQsqaUBKTNV-1">
          <mxGeometry x="405" y="175" width="120" height="60" as="geometry" />
        </mxCell>
        <mxCell id="bKYFdrfAekS4fBA-Ki-D-61" value="" style="edgeStyle=orthogonalEdgeStyle;rounded=0;orthogonalLoop=1;jettySize=auto;html=1;" edge="1" parent="WIyWlLk6GJQsqaUBKTNV-1" source="bKYFdrfAekS4fBA-Ki-D-58" target="bKYFdrfAekS4fBA-Ki-D-60">
          <mxGeometry relative="1" as="geometry" />
        </mxCell>
        <mxCell id="bKYFdrfAekS4fBA-Ki-D-58" value="Turn off&amp;nbsp; green light. Turn on amber. " style="whiteSpace=wrap;html=1;" vertex="1" parent="WIyWlLk6GJQsqaUBKTNV-1">
          <mxGeometry x="605" y="310" width="120" height="60" as="geometry" />
        </mxCell>
        <mxCell id="bKYFdrfAekS4fBA-Ki-D-63" value="" style="edgeStyle=orthogonalEdgeStyle;rounded=0;orthogonalLoop=1;jettySize=auto;html=1;" edge="1" parent="WIyWlLk6GJQsqaUBKTNV-1" source="bKYFdrfAekS4fBA-Ki-D-60" target="bKYFdrfAekS4fBA-Ki-D-62">
          <mxGeometry relative="1" as="geometry" />
        </mxCell>
        <mxCell id="bKYFdrfAekS4fBA-Ki-D-60" value="Check status of the traffic light 1" style="whiteSpace=wrap;html=1;" vertex="1" parent="WIyWlLk6GJQsqaUBKTNV-1">
          <mxGeometry x="605" y="400" width="120" height="60" as="geometry" />
        </mxCell>
        <mxCell id="bKYFdrfAekS4fBA-Ki-D-65" value="No" style="edgeStyle=orthogonalEdgeStyle;rounded=0;orthogonalLoop=1;jettySize=auto;html=1;" edge="1" parent="WIyWlLk6GJQsqaUBKTNV-1" source="bKYFdrfAekS4fBA-Ki-D-62" target="bKYFdrfAekS4fBA-Ki-D-64">
          <mxGeometry relative="1" as="geometry" />
        </mxCell>
        <mxCell id="bKYFdrfAekS4fBA-Ki-D-67" value="Yes" style="edgeStyle=orthogonalEdgeStyle;rounded=0;orthogonalLoop=1;jettySize=auto;html=1;" edge="1" parent="WIyWlLk6GJQsqaUBKTNV-1" source="bKYFdrfAekS4fBA-Ki-D-62" target="bKYFdrfAekS4fBA-Ki-D-66">
          <mxGeometry relative="1" as="geometry" />
        </mxCell>
        <mxCell id="bKYFdrfAekS4fBA-Ki-D-62" value="Is the amber and red lights off?" style="whiteSpace=wrap;html=1;" vertex="1" parent="WIyWlLk6GJQsqaUBKTNV-1">
          <mxGeometry x="605" y="500" width="120" height="60" as="geometry" />
        </mxCell>
        <mxCell id="bKYFdrfAekS4fBA-Ki-D-64" value="Wait until they are both turned off" style="whiteSpace=wrap;html=1;" vertex="1" parent="WIyWlLk6GJQsqaUBKTNV-1">
          <mxGeometry x="405" y="500" width="120" height="60" as="geometry" />
        </mxCell>
        <mxCell id="bKYFdrfAekS4fBA-Ki-D-69" value="" style="edgeStyle=orthogonalEdgeStyle;rounded=0;orthogonalLoop=1;jettySize=auto;html=1;" edge="1" parent="WIyWlLk6GJQsqaUBKTNV-1" source="bKYFdrfAekS4fBA-Ki-D-66" target="bKYFdrfAekS4fBA-Ki-D-68">
          <mxGeometry relative="1" as="geometry" />
        </mxCell>
        <mxCell id="bKYFdrfAekS4fBA-Ki-D-66" value="&lt;div&gt;Turn off amber.&lt;/div&gt;&lt;div&gt;Turn on red light. &lt;br&gt;&lt;/div&gt;" style="whiteSpace=wrap;html=1;" vertex="1" parent="WIyWlLk6GJQsqaUBKTNV-1">
          <mxGeometry x="605" y="610" width="120" height="60" as="geometry" />
        </mxCell>
        <mxCell id="bKYFdrfAekS4fBA-Ki-D-71" value="" style="edgeStyle=orthogonalEdgeStyle;rounded=0;orthogonalLoop=1;jettySize=auto;html=1;" edge="1" parent="WIyWlLk6GJQsqaUBKTNV-1" source="bKYFdrfAekS4fBA-Ki-D-68" target="bKYFdrfAekS4fBA-Ki-D-70">
          <mxGeometry relative="1" as="geometry" />
        </mxCell>
        <mxCell id="bKYFdrfAekS4fBA-Ki-D-68" value="Check on the status of traffic light 1" style="whiteSpace=wrap;html=1;" vertex="1" parent="WIyWlLk6GJQsqaUBKTNV-1">
          <mxGeometry x="605" y="700" width="120" height="60" as="geometry" />
        </mxCell>
        <mxCell id="bKYFdrfAekS4fBA-Ki-D-70" value="Is the " style="whiteSpace=wrap;html=1;" vertex="1" parent="WIyWlLk6GJQsqaUBKTNV-1">
          <mxGeometry x="605" y="840" width="120" height="60" as="geometry" />
        </mxCell>
      </root>
    </mxGraphModel>
  </diagram>
</mxfile>
